<svg width="24" height="24" viewBox="0 0 24 24" fill="none" xmlns="http://www.w3.org/2000/svg">
<path d="M20.692 12.2872C20.6543 12.3779 20.5993 12.4605 20.53 12.5302L16.53 16.5302C16.3878 16.6626 16.1998 16.7348 16.0055 16.7313C15.8112 16.7279 15.6258 16.6492 15.4884 16.5118C15.351 16.3744 15.2723 16.189 15.2688 15.9947C15.2654 15.8004 15.3375 15.6123 15.47 15.4702L18.189 12.7502H4C3.80109 12.7502 3.61032 12.6711 3.46967 12.5305C3.32902 12.3898 3.25 12.1991 3.25 12.0002C3.25 11.8012 3.32902 11.6105 3.46967 11.4698C3.61032 11.3292 3.80109 11.2502 4 11.2502H18.189L15.47 8.53015C15.3963 8.46149 15.3372 8.37869 15.2962 8.28669C15.2552 8.19469 15.2332 8.09538 15.2314 7.99468C15.2296 7.89397 15.2482 7.79394 15.2859 7.70056C15.3236 7.60717 15.3797 7.52233 15.451 7.45112C15.5222 7.3799 15.607 7.32375 15.7004 7.28603C15.7938 7.24831 15.8938 7.22979 15.9945 7.23156C16.0952 7.23334 16.1945 7.25538 16.2865 7.29637C16.3785 7.33736 16.4613 7.39647 16.53 7.47015L20.53 11.4702C20.6346 11.5752 20.7058 11.7088 20.7346 11.8541C20.7635 11.9995 20.7486 12.1502 20.692 12.2872Z" fill="#2EB200"/>
</svg>
