<svg width="90" height="90" viewBox="0 0 90 90" fill="none" xmlns="http://www.w3.org/2000/svg">
<rect width="90" height="90" rx="10" fill="#F2F4F5"/>
<path d="M66.9375 50.1052C66.9375 45.6278 61.2383 42.1785 53.4375 41.742V31.4775C53.4375 25.6635 45.8078 23.0625 38.25 23.0625C30.6923 23.0625 23.0648 25.6635 23.0625 31.4775V56.2725C23.0625 62.0843 30.69 64.6875 38.25 64.6875C39.0308 64.6875 39.825 64.6155 40.6283 64.5368C44.0858 66.2274 47.9029 67.0513 51.75 66.9375C59.3078 66.9375 66.9375 64.3343 66.9375 58.5225V50.1075V50.1052ZM63.5625 50.1052C63.5625 52.4858 58.5112 55.1475 51.75 55.1475C44.9888 55.1475 39.9375 52.4858 39.9375 50.1052C40.0244 49.5557 40.2407 49.0348 40.5685 48.5853C40.8963 48.1358 41.3263 47.7707 41.823 47.52C41.8612 47.4958 41.898 47.4695 41.9333 47.4412C44.9283 45.7708 48.3226 44.9501 51.75 45.0675C58.5112 45.0675 63.5625 47.7292 63.5625 50.1097V50.1052ZM50.0625 39.438C49.9809 39.9534 49.7815 40.4429 49.4798 40.8687C49.1782 41.2944 48.7824 41.6449 48.3232 41.8928C45.5579 42.1558 42.8791 42.9991 40.4618 44.3678C39.744 44.4285 39.0173 44.4735 38.25 44.4735C31.887 44.4735 26.4375 41.7015 26.4375 39.4335V37.0755C30.043 39.078 34.1287 40.0532 38.25 39.8948C42.3713 40.0532 46.457 39.078 50.0625 37.0755V39.438ZM26.4375 44.6602C29.655 46.627 33.3308 47.7183 37.1003 47.826C36.7538 48.5363 36.57 49.315 36.5625 50.1052V52.8232C30.9555 52.3935 26.4375 49.9207 26.4375 47.8552V44.6602ZM38.25 26.4375C44.0573 26.4375 50.0625 28.323 50.0625 31.4798C50.0625 34.7535 43.9875 36.5197 38.25 36.5197C32.5125 36.5197 26.4375 34.7535 26.4375 31.4798C26.4375 28.323 32.4427 26.4375 38.25 26.4375ZM26.4375 56.2725V53.0752C29.4955 54.954 32.9778 56.0312 36.5625 56.2073V58.5225C36.5577 59.487 36.7895 60.4381 37.2375 61.2922C31.7678 61.0875 26.4375 59.2448 26.4375 56.2725ZM51.75 63.5625C48.4198 63.6646 45.1149 62.9525 42.1222 61.488C41.5289 61.2306 41.0144 60.8205 40.631 60.2996C40.2477 59.7787 40.0091 59.1655 39.9398 58.5225V55.521C43.5045 57.6402 47.6058 58.6841 51.75 58.527C55.8949 58.6845 59.9971 57.6406 63.5625 55.521V58.5225C63.5625 61.677 57.5573 63.5625 51.75 63.5625Z" fill="black"/>
</svg>
