<svg width="40" height="40" viewBox="0 0 40 40" fill="none" xmlns="http://www.w3.org/2000/svg">
<rect width="40" height="40" rx="4.44445" fill="#F2F4F5"/>
<path d="M19.84 24.8752C19.84 25.0492 19.7709 25.2161 19.6478 25.3392C19.5247 25.4623 19.3578 25.5314 19.1837 25.5314H14.3712C13.9279 25.5828 13.4787 25.5333 13.0572 25.3865C12.6357 25.2398 12.2529 24.9997 11.9373 24.6841C11.6217 24.3685 11.3816 23.9857 11.2349 23.5642C11.0881 23.1427 11.0386 22.6935 11.09 22.2502V15.2502C11.0386 14.8068 11.0881 14.3576 11.2349 13.9361C11.3816 13.5146 11.6217 13.1318 11.9373 12.8162C12.2529 12.5006 12.6357 12.2605 13.0572 12.1138C13.4787 11.967 13.9279 11.9175 14.3712 11.9689H24.8712C25.3146 11.9175 25.7638 11.967 26.1853 12.1138C26.6068 12.2605 26.9896 12.5006 27.3052 12.8162C27.6208 13.1318 27.8609 13.5146 28.0076 13.9361C28.1544 14.3576 28.2039 14.8068 28.1525 15.2502C28.1525 15.4242 28.0834 15.5911 27.9603 15.7142C27.8372 15.8373 27.6703 15.9064 27.4962 15.9064C27.3222 15.9064 27.1553 15.8373 27.0322 15.7142C26.9091 15.5911 26.84 15.4242 26.84 15.2502C26.84 13.8703 26.2511 13.2814 24.8712 13.2814H14.3712C12.9914 13.2814 12.4025 13.8703 12.4025 15.2502V22.2502C12.4025 23.63 12.9914 24.2189 14.3712 24.2189H19.1837C19.3578 24.2189 19.5247 24.288 19.6478 24.4111C19.7709 24.5342 19.84 24.7011 19.84 24.8752ZM20.4962 16.3439H15.2462C15.0722 16.3439 14.9053 16.413 14.7822 16.5361C14.6591 16.6592 14.59 16.8261 14.59 17.0002C14.59 17.1742 14.6591 17.3411 14.7822 17.4642C14.9053 17.5873 15.0722 17.6564 15.2462 17.6564H20.4962C20.6703 17.6564 20.8372 17.5873 20.9603 17.4642C21.0834 17.3411 21.1525 17.1742 21.1525 17.0002C21.1525 16.8261 21.0834 16.6592 20.9603 16.5361C20.8372 16.413 20.6703 16.3439 20.4962 16.3439ZM17.8712 21.1564C18.0453 21.1564 18.2122 21.0873 18.3353 20.9642C18.4584 20.8411 18.5275 20.6742 18.5275 20.5002C18.5275 20.3261 18.4584 20.1592 18.3353 20.0361C18.2122 19.913 18.0453 19.8439 17.8712 19.8439H15.2462C15.0722 19.8439 14.9053 19.913 14.7822 20.0361C14.6591 20.1592 14.59 20.3261 14.59 20.5002C14.59 20.6742 14.6591 20.8411 14.7822 20.9642C14.9053 21.0873 15.0722 21.1564 15.2462 21.1564H17.8712ZM29.3399 23.0237L29.1587 23.2127L29.1657 23.4568C29.1645 23.8053 29.0681 24.1469 28.8869 24.4447C28.7057 24.7425 28.4466 24.9851 28.1376 25.1464L29.0074 28.1975C29.0406 28.3154 29.0402 28.4403 29.0061 28.5579C28.9721 28.6756 28.9058 28.7814 28.8147 28.8634C28.7237 28.9453 28.6115 29.0001 28.4909 29.0216C28.3703 29.0431 28.2461 29.0305 28.1324 28.985L26.5162 28.3375C25.8375 28.0658 25.0801 28.0658 24.4014 28.3375L22.787 28.9842C22.6732 29.0292 22.5492 29.0416 22.4287 29.02C22.3083 28.9984 22.1963 28.9435 22.1054 28.8617C22.0144 28.7798 21.9481 28.6742 21.914 28.5567C21.8798 28.4392 21.8791 28.3145 21.912 28.1967L22.7817 25.1455C22.473 24.984 22.2142 24.7413 22.0332 24.4435C21.8522 24.1458 21.7558 23.8043 21.7545 23.4559V23.1934L21.5795 23.0245C21.2215 22.6639 21.0206 22.1764 21.0206 21.6683C21.0206 21.1601 21.2215 20.6726 21.5795 20.312L21.7659 20.1257L21.7589 19.8824C21.7602 19.3756 21.9614 18.8899 22.3186 18.5305C22.6759 18.1711 23.1605 17.967 23.6672 17.9627H23.9297L24.0969 17.7877C24.4624 17.4391 24.9481 17.2447 25.4531 17.2447C25.9582 17.2447 26.4439 17.4391 26.8094 17.7877L26.9949 17.9723L27.2399 17.9662C27.7474 17.9678 28.2337 18.1697 28.5931 18.5281C28.9525 18.8865 29.1558 19.3723 29.1587 19.8798V20.1423L29.3337 20.3112C29.6936 20.6704 29.8964 21.1577 29.8975 21.6661C29.8987 22.1746 29.6981 22.6628 29.3399 23.0237ZM27.3729 27.2683L26.8671 25.4938L26.8111 25.5524C26.633 25.7305 26.4216 25.8718 26.1889 25.9682C25.9562 26.0646 25.7068 26.1142 25.4549 26.1142C25.203 26.1142 24.9536 26.0646 24.7209 25.9682C24.4882 25.8718 24.2767 25.7305 24.0986 25.5524L24.0426 25.4964L23.5377 27.2683L23.9105 27.1178C24.9021 26.7209 26.0085 26.7209 27.0001 27.1178L27.3729 27.2683ZM28.4124 21.2378L28.2269 21.0523C28.1069 20.9327 28.0117 20.7906 27.9469 20.6341C27.882 20.4777 27.8487 20.3099 27.8489 20.1405V19.878C27.8489 19.7171 27.785 19.5628 27.6713 19.4489C27.5576 19.3351 27.4034 19.271 27.2425 19.2708H26.98C26.8104 19.2713 26.6423 19.2381 26.4856 19.173C26.3289 19.108 26.1868 19.0124 26.0674 18.8919L25.8836 18.7082C25.7681 18.5972 25.6141 18.5353 25.454 18.5353C25.2938 18.5353 25.1399 18.5972 25.0244 18.7082L24.8397 18.8928C24.7202 19.0128 24.5781 19.108 24.4216 19.1728C24.2652 19.2377 24.0974 19.271 23.928 19.2708H23.6655C23.5046 19.271 23.3504 19.3351 23.2367 19.4489C23.123 19.5628 23.0591 19.7171 23.0591 19.878V20.1405C23.0598 20.3096 23.0269 20.4772 22.9625 20.6335C22.8981 20.7898 22.8033 20.9319 22.6837 21.0514L22.4965 21.2378C22.384 21.3523 22.321 21.5064 22.321 21.667C22.321 21.8275 22.384 21.9816 22.4965 22.0962L22.6829 22.2825C22.8031 22.4016 22.8984 22.5433 22.9633 22.6996C23.0282 22.8558 23.0613 23.0234 23.0609 23.1925V23.455C23.0609 23.6159 23.1247 23.7703 23.2384 23.8841C23.3521 23.998 23.5063 24.062 23.6672 24.0623H23.9297C24.0987 24.062 24.2661 24.095 24.4223 24.1596C24.5785 24.2242 24.7203 24.319 24.8397 24.4385L25.027 24.6258C25.1424 24.7362 25.296 24.7978 25.4557 24.7978C25.6155 24.7978 25.7691 24.7362 25.8845 24.6258L26.0717 24.4394C26.1909 24.3195 26.3327 24.2245 26.489 24.1599C26.6452 24.0953 26.8127 24.0624 26.9817 24.0632H27.2442C27.4051 24.0629 27.5594 23.9988 27.6731 23.885C27.7868 23.7711 27.8506 23.6168 27.8506 23.4559V23.1934C27.8502 23.0245 27.8833 22.8573 27.9478 22.7012C28.0124 22.5452 28.1073 22.4035 28.2269 22.2843L28.4141 22.097C28.5266 21.9822 28.5895 21.8278 28.5892 21.667C28.5889 21.5063 28.5254 21.3521 28.4124 21.2378ZM27.5689 21.6665C27.569 22.0849 27.4451 22.4939 27.2128 22.8418C26.9805 23.1897 26.6502 23.4609 26.2637 23.6211C25.8772 23.7813 25.4519 23.8233 25.0416 23.7417C24.6313 23.6601 24.2544 23.4587 23.9586 23.1628C23.6627 22.867 23.4613 22.4901 23.3797 22.0798C23.2981 21.6695 23.3401 21.2442 23.5003 20.8577C23.6605 20.4712 23.9317 20.1409 24.2796 19.9086C24.6275 19.6763 25.0365 19.5524 25.4549 19.5525C26.0153 19.5532 26.5526 19.7762 26.9489 20.1725C27.3452 20.5688 27.5682 21.1061 27.5689 21.6665ZM26.2564 21.6665C26.2564 21.5078 26.2093 21.3526 26.1211 21.2207C26.0329 21.0887 25.9075 20.9859 25.7608 20.9251C25.6142 20.8644 25.4528 20.8486 25.2971 20.8796C25.1415 20.9107 24.9985 20.9872 24.8863 21.0995C24.7741 21.2118 24.6978 21.3548 24.6669 21.5105C24.6361 21.6662 24.6521 21.8276 24.713 21.9742C24.7738 22.1208 24.8768 22.246 25.0089 22.3341C25.1409 22.4222 25.2961 22.4691 25.4549 22.4689C25.6675 22.4687 25.8714 22.384 26.0217 22.2336C26.172 22.0831 26.2564 21.8792 26.2564 21.6665Z" fill="#2EB200"/>
</svg>
