<svg width="40" height="40" viewBox="0 0 40 40" fill="none" xmlns="http://www.w3.org/2000/svg">
<rect width="40" height="40" rx="4.44445" fill="#F2F4F5"/>
<path d="M24.875 28.1563C24.226 28.1563 23.5916 27.9638 23.052 27.6033C22.5124 27.2427 22.0919 26.7303 21.8435 26.1307C21.5952 25.5311 21.5302 24.8714 21.6568 24.2349C21.7834 23.5984 22.0959 23.0137 22.5548 22.5548C23.0137 22.0959 23.5984 21.7834 24.2349 21.6568C24.8714 21.5302 25.5311 21.5952 26.1307 21.8435C26.7303 22.0919 27.2427 22.5124 27.6033 23.052C27.9638 23.5916 28.1563 24.226 28.1563 24.875C28.1551 25.7449 27.809 26.5788 27.1939 27.1939C26.5788 27.809 25.7449 28.1551 24.875 28.1563ZM24.875 22.9063C24.4856 22.9063 24.105 23.0217 23.7812 23.238C23.4575 23.4544 23.2051 23.7619 23.0561 24.1216C22.9071 24.4813 22.8681 24.8772 22.9441 25.2591C23.02 25.641 23.2076 25.9918 23.4829 26.2671C23.7582 26.5425 24.109 26.73 24.4909 26.8059C24.8728 26.8819 25.2687 26.8429 25.6284 26.6939C25.9882 26.5449 26.2956 26.2925 26.512 25.9688C26.7283 25.645 26.8438 25.2644 26.8438 24.875C26.8431 24.3531 26.6354 23.8527 26.2663 23.4837C25.8973 23.1146 25.3969 22.9069 24.875 22.9063ZM26.1875 19.4063H23.5625C23.2978 19.4309 23.0309 19.397 22.7808 19.3068C22.5308 19.2165 22.3037 19.0723 22.1157 18.8843C21.9277 18.6963 21.7835 18.4692 21.6932 18.2192C21.603 17.9691 21.5691 17.7022 21.5938 17.4375V14.8125C21.5691 14.5478 21.603 14.2809 21.6932 14.0308C21.7835 13.7808 21.9277 13.5537 22.1157 13.3657C22.3037 13.1777 22.5308 13.0335 22.7808 12.9432C23.0309 12.853 23.2978 12.8191 23.5625 12.8438H26.1875C26.4522 12.8191 26.7191 12.853 26.9692 12.9432C27.2192 13.0335 27.4463 13.1777 27.6343 13.3657C27.8223 13.5537 27.9665 13.7808 28.0568 14.0308C28.147 14.2809 28.1809 14.5478 28.1563 14.8125V17.4375C28.1809 17.7022 28.147 17.9691 28.0568 18.2192C27.9665 18.4692 27.8223 18.6963 27.6343 18.8843C27.4463 19.0723 27.2192 19.2165 26.9692 19.3068C26.7191 19.397 26.4522 19.4309 26.1875 19.4063ZM23.5625 14.1563C23.0471 14.1563 22.9063 14.2971 22.9063 14.8125V17.4375C22.9063 17.9529 23.0471 18.0938 23.5625 18.0938H26.1875C26.7029 18.0938 26.8438 17.9529 26.8438 17.4375V14.8125C26.8438 14.2971 26.7029 14.1563 26.1875 14.1563H23.5625ZM17.4375 19.4063H14.8125C14.5478 19.4309 14.2809 19.397 14.0308 19.3068C13.7808 19.2165 13.5537 19.0723 13.3657 18.8843C13.1777 18.6963 13.0335 18.4692 12.9432 18.2192C12.853 17.9691 12.8191 17.7022 12.8438 17.4375V14.8125C12.8191 14.5478 12.853 14.2809 12.9432 14.0308C13.0335 13.7808 13.1777 13.5537 13.3657 13.3657C13.5537 13.1777 13.7808 13.0335 14.0308 12.9432C14.2809 12.853 14.5478 12.8191 14.8125 12.8438H17.4375C17.7022 12.8191 17.9691 12.853 18.2192 12.9432C18.4692 13.0335 18.6963 13.1777 18.8843 13.3657C19.0723 13.5537 19.2165 13.7808 19.3068 14.0308C19.397 14.2809 19.4309 14.5478 19.4063 14.8125V17.4375C19.4309 17.7022 19.397 17.9691 19.3068 18.2192C19.2165 18.4692 19.0723 18.6963 18.8843 18.8843C18.6963 19.0723 18.4692 19.2165 18.2192 19.3068C17.9691 19.397 17.7022 19.4309 17.4375 19.4063ZM14.8125 14.1563C14.2971 14.1563 14.1563 14.2971 14.1563 14.8125V17.4375C14.1563 17.9529 14.2971 18.0938 14.8125 18.0938H17.4375C17.9529 18.0938 18.0938 17.9529 18.0938 17.4375V14.8125C18.0938 14.2971 17.9529 14.1563 17.4375 14.1563H14.8125ZM17.4375 28.1563H14.8125C14.5478 28.1809 14.2809 28.147 14.0308 28.0568C13.7808 27.9665 13.5537 27.8223 13.3657 27.6343C13.1777 27.4463 13.0335 27.2192 12.9432 26.9692C12.853 26.7191 12.8191 26.4522 12.8438 26.1875V23.5625C12.8191 23.2978 12.853 23.0309 12.9432 22.7808C13.0335 22.5308 13.1777 22.3037 13.3657 22.1157C13.5537 21.9277 13.7808 21.7835 14.0308 21.6932C14.2809 21.603 14.5478 21.5691 14.8125 21.5938H17.4375C17.7022 21.5691 17.9691 21.603 18.2192 21.6932C18.4692 21.7835 18.6963 21.9277 18.8843 22.1157C19.0723 22.3037 19.2165 22.5308 19.3068 22.7808C19.397 23.0309 19.4309 23.2978 19.4063 23.5625V26.1875C19.4309 26.4522 19.397 26.7191 19.3068 26.9692C19.2165 27.2192 19.0723 27.4463 18.8843 27.6343C18.6963 27.8223 18.4692 27.9665 18.2192 28.0568C17.9691 28.147 17.7022 28.1809 17.4375 28.1563ZM14.8125 22.9063C14.2971 22.9063 14.1563 23.0471 14.1563 23.5625V26.1875C14.1563 26.7029 14.2971 26.8438 14.8125 26.8438H17.4375C17.9529 26.8438 18.0938 26.7029 18.0938 26.1875V23.5625C18.0938 23.0471 17.9529 22.9063 17.4375 22.9063H14.8125Z" fill="#2EB200"/>
</svg>
