<svg width="1440" height="350" viewBox="0 0 1440 350" fill="none" xmlns="http://www.w3.org/2000/svg">
<g opacity="0.5" clip-path="url(#clip0_818_729)">
<rect width="1440" height="350" fill="white"/>
<mask id="mask0_818_729" style="mask-type:luminance" maskUnits="userSpaceOnUse" x="-83" y="-227" width="1606" height="804">
<path d="M1522.36 -227H-83V576.794H1522.36V-227Z" fill="white"/>
</mask>
<g mask="url(#mask0_818_729)">
<mask id="mask1_818_729" style="mask-type:luminance" maskUnits="userSpaceOnUse" x="899" y="-215" width="804" height="748">
<path d="M1703 -214.217H899.896V532.585H1703V-214.217Z" fill="white"/>
</mask>
<g mask="url(#mask1_818_729)">
<path d="M1425.27 362.111H1226.62L1213.89 425.437C1208.14 454.029 1216.89 483.206 1237.88 505.475C1258.87 527.748 1289.67 540.52 1322.37 540.52H1389.4L1425.27 362.107M1508.2 300.426L1447.54 602.201H1322.37C1210.53 602.201 1125.88 512.391 1145.53 414.587L1168.49 300.426H1508.2Z" fill="#E8EBED"/>
<path d="M1023.72 175.412H825.069L812.339 238.738C806.593 267.33 815.337 296.507 836.328 318.776C857.318 341.049 888.116 353.821 920.816 353.821H987.853L1023.72 175.409M1106.65 113.728L1045.99 415.502H920.816C808.978 415.502 724.327 325.692 743.984 227.888L766.938 113.728H1106.65Z" fill="#E8EBED"/>
<path d="M1425.27 -11.2899H1226.62L1213.89 52.0357C1208.14 80.6277 1216.89 109.805 1237.88 132.074C1258.87 154.347 1289.67 167.119 1322.37 167.119H1389.4L1425.27 -11.2936M1508.2 -72.9746L1447.54 228.8H1322.37C1210.53 228.8 1125.88 138.99 1145.53 41.1863L1168.49 -72.9746H1508.2Z" fill="#E8EBED"/>
<path d="M1023.72 -197.989H825.069L812.339 -134.663C806.593 -106.071 815.337 -76.8936 836.328 -54.6245C857.318 -32.3516 888.116 -19.5798 920.816 -19.5798H987.853L1023.72 -197.992M1106.65 -259.673L1045.99 42.1012H920.816C808.978 42.1012 724.327 -47.7089 743.984 -145.512L766.938 -259.673H1106.65Z" fill="#E8EBED"/>
</g>
<mask id="mask2_818_729" style="mask-type:luminance" maskUnits="userSpaceOnUse" x="96" y="-215" width="804" height="748">
<path d="M899.896 -214.217H96.7967V532.585H899.896V-214.217Z" fill="white"/>
</mask>
<g mask="url(#mask2_818_729)">
<path d="M1023.72 175.412H825.069L812.339 238.738C806.593 267.33 815.337 296.507 836.328 318.776C857.318 341.049 888.116 353.821 920.816 353.821H987.853L1023.72 175.409M1106.65 113.728L1045.99 415.502H920.816C808.978 415.502 724.328 325.692 743.984 227.888L766.938 113.728H1106.65Z" fill="#E8EBED"/>
<path d="M622.168 362.111H423.52L410.789 425.437C405.043 454.029 413.787 483.206 434.778 505.475C455.769 527.748 486.567 540.52 519.266 540.52H586.304L622.168 362.107M705.101 300.426L644.439 602.201H519.266C407.428 602.201 322.778 512.391 342.434 414.587L365.389 300.426H705.101Z" fill="#E8EBED"/>
<path d="M220.618 175.412H21.97L9.23967 238.738C3.49372 267.33 12.2377 296.507 33.2284 318.776C54.2191 341.049 85.017 353.821 117.716 353.821H184.754L220.618 175.409M303.551 113.728L242.889 415.502H117.716C5.87883 415.502 -78.7719 325.692 -59.1155 227.888L-36.1609 113.728H303.551Z" fill="#E8EBED"/>
<path d="M1023.72 -197.989H825.069L812.339 -134.663C806.593 -106.071 815.337 -76.8936 836.328 -54.6245C857.318 -32.3516 888.116 -19.5798 920.816 -19.5798H987.853L1023.72 -197.992M1106.65 -259.673L1045.99 42.1012H920.816C808.978 42.1012 724.328 -47.7089 743.984 -145.512L766.938 -259.673H1106.65Z" fill="#E8EBED"/>
<path d="M622.168 -11.2899H423.52L410.789 52.0357C405.043 80.6278 413.787 109.805 434.778 132.074C455.769 154.347 486.567 167.119 519.266 167.119H586.304L622.168 -11.2936M705.101 -72.9746L644.439 228.8H519.266C407.428 228.8 322.778 138.99 342.434 41.1863L365.389 -72.9746H705.101Z" fill="#E8EBED"/>
<path d="M220.618 -197.989H21.97L9.23967 -134.663C3.49372 -106.071 12.2377 -76.8936 33.2284 -54.6245C54.2191 -32.3516 85.017 -19.5798 117.716 -19.5798H184.754L220.618 -197.992M303.551 -259.673L242.889 42.1012H117.716C5.87883 42.1012 -78.7719 -47.7089 -59.1155 -145.512L-36.1609 -259.67H303.551V-259.673Z" fill="#E8EBED"/>
</g>
<mask id="mask3_818_729" style="mask-type:luminance" maskUnits="userSpaceOnUse" x="-707" y="-215" width="804" height="748">
<path d="M96.7968 -214.217H-706.303V532.585H96.7968V-214.217Z" fill="white"/>
</mask>
<g mask="url(#mask3_818_729)">
<path d="M220.619 175.411H21.9703L9.24001 238.737C3.49405 267.329 12.2381 296.506 33.2287 318.775C54.2194 341.048 85.0174 353.82 117.717 353.82H184.754L220.619 175.408M303.551 113.727L242.889 415.501H117.717C5.87916 415.501 -78.7715 325.691 -59.1152 227.888L-36.1605 113.727H303.551Z" fill="#E8EBED"/>
<path d="M220.618 -197.99H21.9702L9.23985 -134.664C3.4939 -106.072 12.2379 -76.8946 33.2286 -54.6254C54.2192 -32.3526 85.0172 -19.5808 117.717 -19.5808H184.754L220.618 -197.993M303.551 -259.674L242.889 42.1002H117.717C5.87901 42.1002 -78.7717 -47.7099 -59.1153 -145.513L-36.1607 -259.671H303.551V-259.674Z" fill="#E8EBED"/>
</g>
</g>
<rect width="1440" height="299" fill="url(#paint0_linear_818_729)"/>
</g>
<defs>
<linearGradient id="paint0_linear_818_729" x1="720" y1="-333" x2="720" y2="299" gradientUnits="userSpaceOnUse">
<stop offset="0.527869" stop-color="white"/>
<stop offset="1" stop-color="white" stop-opacity="0"/>
</linearGradient>
<clipPath id="clip0_818_729">
<rect width="1440" height="350" fill="white"/>
</clipPath>
</defs>
</svg>
