<svg width="188" height="26" viewBox="0 0 188 26" fill="none" xmlns="http://www.w3.org/2000/svg">
<path d="M94.758 23.4939C93.2329 22.4944 92.0968 21.1496 91.3497 19.4674C90.6001 17.7826 90.2266 15.933 90.2266 13.9107C90.2266 11.8884 90.6001 10.0439 91.3497 8.36946C92.0968 6.69498 93.2329 5.36312 94.758 4.37131C96.283 3.3795 98.1662 2.88489 100.413 2.88489C102.937 2.88489 104.983 3.50316 106.544 4.73712C108.105 5.97109 109.045 7.61723 109.365 9.67555H105.464C105.24 8.53433 104.673 7.64557 103.767 7.00926C102.86 6.37296 101.724 6.0561 100.358 6.0561C98.3001 6.0561 96.7107 6.77226 95.5875 8.20201C94.4643 9.63434 93.9027 11.5381 93.9027 13.9133C93.9027 16.2885 94.4643 18.2025 95.5875 19.6529C96.7107 21.1032 98.3001 21.8271 100.358 21.8271C101.742 21.8271 102.883 21.4897 103.782 20.8173C104.681 20.1449 105.24 19.1531 105.467 17.8419H109.367C109.03 20.0496 108.087 21.7936 106.533 23.074C104.98 24.3543 102.942 24.9958 100.415 24.9958C98.1713 24.9958 96.2856 24.496 94.7605 23.4939H94.758Z" fill="#2EB200"/>
<path d="M113.54 24.6299H109.836L117.497 3.21973H121.426L129.087 24.6299H125.383L123.811 19.9439H115.14L113.54 24.6299ZM116.178 16.8294H122.745L120.22 9.30969C119.865 8.20711 119.687 7.34668 119.687 6.72841H119.239C119.239 7.40078 119.071 8.26378 118.734 9.30969L116.181 16.8294H116.178Z" fill="#2EB200"/>
<path d="M130.773 24.6299V3.21973H139.612C141.707 3.21973 143.358 3.7401 144.563 4.77828C145.769 5.81646 146.374 7.38275 146.374 9.47714C146.374 11.5715 145.756 13.0502 144.522 14.1914C143.288 15.3327 141.65 15.902 139.612 15.902H134.336V24.6299H130.773ZM139.136 12.7875C140.351 12.7875 141.276 12.5118 141.913 11.9605C142.549 11.4092 142.866 10.6184 142.866 9.59049C142.866 8.56261 142.544 7.77689 141.897 7.23333C141.253 6.68977 140.331 6.41928 139.133 6.41928H134.334V12.79H139.133L139.136 12.7875Z" fill="#2EB200"/>
<path d="M152.211 24.6299H148.648V3.21973H152.211V24.6299Z" fill="#2EB200"/>
<path d="M164.336 24.6299H160.773V6.41928H154.039V3.21973H171.127V6.41928H164.336V24.6299Z" fill="#2EB200"/>
<path d="M172.275 24.6299H168.57L176.232 3.21973H180.16L187.822 24.6299H184.117L182.546 19.9439H173.875L172.275 24.6299ZM174.913 16.8294H181.479L178.955 9.30969C178.599 8.20711 178.421 7.34668 178.421 6.72841H177.973C177.973 7.40078 177.806 8.26378 177.468 9.30969L174.915 16.8294H174.913Z" fill="#2EB200"/>
<path d="M31.9226 23.8571C30.5856 23.025 29.5835 21.9121 28.9188 20.5184C28.2542 19.1247 27.9219 17.5945 27.9219 15.9303C27.9219 13.7973 28.4319 11.7158 29.4521 9.68582C30.4722 7.65583 31.9587 5.99681 33.9139 4.70617C35.8692 3.41553 38.1542 2.76892 40.7742 2.76892C42.6625 2.76892 44.2622 3.09094 45.5735 3.73754C46.8822 4.38158 47.8688 5.28064 48.5335 6.43217C49.1981 7.5837 49.5201 8.92586 49.5021 10.4587H44.1437C44.051 9.33546 43.6749 8.52141 43.0205 8.01649C42.3662 7.51157 41.3924 7.25911 40.1018 7.25911C38.6617 7.25911 37.3943 7.66098 36.2994 8.46473C35.2046 9.26849 34.3725 10.2938 33.8032 11.5381C33.2313 12.7823 32.9479 14.0498 32.9479 15.3404C32.9479 16.8552 33.3446 18.1149 34.1406 19.1144C34.9367 20.114 36.1011 20.6163 37.6339 20.6163C38.9425 20.6163 40.0657 20.369 41.0009 19.8718C41.936 19.3772 42.6187 18.6971 43.0489 17.8367C43.1236 17.6692 43.1983 17.4863 43.273 17.2905C43.3477 17.0948 43.4276 16.9247 43.5126 16.7856C43.5976 16.6465 43.7238 16.51 43.8913 16.3786L43.7522 16.2111C43.4894 16.4353 43.2524 16.577 43.036 16.6311C42.8196 16.6877 42.4976 16.7161 42.0674 16.7161H39.0636L39.7643 12.6767H49.2496L47.1449 24.6299H42.5723L43.0772 21.9636H42.5723C42.3482 23.0301 41.7582 23.821 40.8051 24.3337C39.8519 24.8489 38.5329 25.1065 36.8482 25.1065C34.9032 25.1065 33.2596 24.6892 31.9226 23.8571Z" fill="white"/>
<path d="M64.1195 24.6299H49.5L53.2895 3.21973H67.909L67.0949 7.70991H57.4989L56.7982 11.6952H65.4694L64.6837 16.157H56.0124L55.3117 20.1423H64.9078L64.1221 24.6325L64.1195 24.6299Z" fill="white"/>
<path d="M66.4766 24.6299L70.266 3.21973H75.2895L80.1429 14.0781C80.3284 14.4697 80.4804 14.8509 80.5911 15.2142C80.7019 15.5774 80.7972 16.0901 80.8719 16.7444H81.516C81.4979 16.072 81.5031 15.5465 81.5289 15.173C81.5572 14.7994 81.6164 14.3409 81.7118 13.7973L83.5923 3.21973H88.6158L84.8289 24.6299H79.7771L74.8953 13.6015C74.8773 13.5448 74.8103 13.3903 74.6996 13.1378C74.5888 12.8854 74.4883 12.5814 74.4059 12.2259C74.3209 11.8704 74.2513 11.4788 74.1946 11.046H73.5764C73.5944 11.7184 73.5892 12.2387 73.5635 12.6046C73.5351 12.9704 73.4733 13.4238 73.3806 13.9647L71.5 24.6273H66.4766V24.6299Z" fill="white"/>
<path d="M1.8154 0.893555L0.21047 9.87393L0.197592 9.94864C-1.16775 17.6023 4.71612 24.63 12.4909 24.63C12.5166 24.63 12.5398 24.63 12.5656 24.63H21.3115L25.5518 0.893555H1.8154ZM8.62152 18.692C7.8899 18.2541 7.22526 17.695 6.66366 17.0227C6.08403 16.3297 5.64094 15.5517 5.33696 14.7248H9.32995L8.6241 18.692H8.62152ZM17.2515 19.7791H13.3564L15.1211 9.87393H5.1386L5.87537 5.74698H19.7555L17.249 19.7791H17.2515Z" fill="white"/>
</svg>
