<svg width="16" height="16" viewBox="0 0 16 16" fill="none" xmlns="http://www.w3.org/2000/svg">
<g id="info-circle 1" clip-path="url(#clip0_725_1391)">
<g id="Group">
<g id="Group_2">
<path id="1696900352029-8692725_info-circle" d="M8.00261 15.1667C6.58517 15.1667 5.19957 14.7464 4.02102 13.9589C2.84247 13.1714 1.9239 12.0521 1.38147 10.7426C0.839043 9.43304 0.697119 7.99206 0.973646 6.60187C1.25017 5.21167 1.93273 3.93469 2.93501 2.93241C3.93728 1.93014 5.21426 1.24758 6.60446 0.971052C7.99466 0.694525 9.43563 0.836449 10.7452 1.37888C12.0547 1.9213 13.174 2.83987 13.9615 4.01843C14.749 5.19698 15.1693 6.58258 15.1693 8.00001C15.1672 9.90008 14.4114 11.7217 13.0679 13.0653C11.7243 14.4088 9.90267 15.1646 8.00261 15.1667ZM8.00261 1.83335C6.78296 1.83335 5.59069 2.19502 4.57659 2.87262C3.56249 3.55022 2.77209 4.51332 2.30535 5.64013C1.83861 6.76694 1.71649 8.00685 1.95443 9.20307C2.19237 10.3993 2.77969 11.4981 3.64212 12.3605C4.50454 13.2229 5.60333 13.8102 6.79955 14.0482C7.99577 14.2861 9.23568 14.164 10.3625 13.6973C11.4893 13.2305 12.4524 12.4401 13.13 11.426C13.8076 10.4119 14.1693 9.21966 14.1693 8.00001C14.1675 6.36505 13.5172 4.79756 12.3612 3.64147C11.2051 2.48538 9.63757 1.83511 8.00261 1.83335ZM8.50261 11V7.95268C8.50261 7.82007 8.44993 7.69289 8.35616 7.59913C8.26239 7.50536 8.13522 7.45268 8.00261 7.45268C7.87 7.45268 7.74282 7.50536 7.64905 7.59913C7.55529 7.69289 7.50261 7.82007 7.50261 7.95268V11C7.50261 11.1326 7.55529 11.2598 7.64905 11.3536C7.74282 11.4473 7.87 11.5 8.00261 11.5C8.13522 11.5 8.26239 11.4473 8.35616 11.3536C8.44993 11.2598 8.50261 11.1326 8.50261 11ZM8.68261 5.66668C8.68261 5.48987 8.61237 5.3203 8.48734 5.19528C8.36232 5.07025 8.19275 5.00001 8.01594 5.00001H8.00927C7.87771 5.00133 7.74948 5.04154 7.64073 5.11559C7.53198 5.18964 7.44757 5.29422 7.39813 5.41614C7.34869 5.53807 7.33643 5.6719 7.36291 5.80078C7.38938 5.92966 7.45339 6.04782 7.54689 6.14039C7.64038 6.23296 7.75918 6.29579 7.88831 6.32098C8.01745 6.34617 8.15115 6.33258 8.27258 6.28194C8.39401 6.23129 8.49774 6.14584 8.5707 6.03636C8.64366 5.92687 8.6826 5.79825 8.68261 5.66668Z" fill="black" fill-opacity="0.5"/>
</g>
</g>
</g>
<defs>
<clipPath id="clip0_725_1391">
<rect width="16" height="16" fill="white"/>
</clipPath>
</defs>
</svg>
