<svg width="40" height="40" viewBox="0 0 40 40" fill="none" xmlns="http://www.w3.org/2000/svg">
<rect width="40" height="40" rx="4.44445" fill="#F2F4F5"/>
<path d="M29.25 27.7189H29.0312V19.6252C29.0657 19.3007 29.0271 18.9727 28.9184 18.6651C28.8097 18.3575 28.6335 18.0781 28.4028 17.8474C28.1721 17.6167 27.8927 17.4405 27.5851 17.3318C27.2775 17.223 26.9494 17.1845 26.625 17.2189H26.4062V15.2502C26.4576 14.8068 26.4081 14.3576 26.2614 13.9361C26.1146 13.5146 25.8745 13.1318 25.5589 12.8162C25.2434 12.5006 24.8605 12.2605 24.439 12.1138C24.0175 11.967 23.5683 11.9175 23.125 11.9689H17.875C17.4317 11.9175 16.9825 11.967 16.561 12.1138C16.1395 12.2605 15.7566 12.5006 15.4411 12.8162C15.1255 13.1318 14.8854 13.5146 14.7386 13.9361C14.5919 14.3576 14.5424 14.8068 14.5938 15.2502V17.2189H14.375C14.0506 17.1845 13.7225 17.223 13.4149 17.3318C13.1073 17.4405 12.8279 17.6167 12.5972 17.8474C12.3665 18.0781 12.1903 18.3575 12.0816 18.6651C11.9729 18.9727 11.9343 19.3007 11.9688 19.6252V27.7189H11.75C11.576 27.7189 11.409 27.788 11.286 27.9111C11.1629 28.0342 11.0938 28.2011 11.0938 28.3752C11.0938 28.5492 11.1629 28.7161 11.286 28.8392C11.409 28.9623 11.576 29.0314 11.75 29.0314H29.25C29.424 29.0314 29.591 28.9623 29.714 28.8392C29.8371 28.7161 29.9062 28.5492 29.9062 28.3752C29.9062 28.2011 29.8371 28.0342 29.714 27.9111C29.591 27.788 29.424 27.7189 29.25 27.7189ZM15.9062 15.2502C15.9062 13.8703 16.4951 13.2814 17.875 13.2814H23.125C24.5049 13.2814 25.0938 13.8703 25.0938 15.2502V27.7189H22.9062V25.7502C22.9062 25.112 22.6527 24.4999 22.2015 24.0487C21.7502 23.5974 21.1382 23.3439 20.5 23.3439C19.8618 23.3439 19.2498 23.5974 18.7985 24.0487C18.3473 24.4999 18.0938 25.112 18.0938 25.7502V27.7189H15.9062V15.2502ZM21.5938 27.7189H19.4062V25.7502C19.4062 25.4601 19.5215 25.1819 19.7266 24.9768C19.9317 24.7716 20.2099 24.6564 20.5 24.6564C20.7901 24.6564 21.0683 24.7716 21.2734 24.9768C21.4785 25.1819 21.5938 25.4601 21.5938 25.7502V27.7189ZM13.2812 19.6252C13.2812 18.828 13.5779 18.5314 14.375 18.5314H14.5938V27.7189H13.2812V19.6252ZM26.4062 27.7189V18.5314H26.625C27.4221 18.5314 27.7188 18.828 27.7188 19.6252V27.7189H26.4062ZM17.6562 16.1252C17.6562 15.9511 17.7254 15.7842 17.8485 15.6611C17.9715 15.538 18.1385 15.4689 18.3125 15.4689H19.1875C19.3615 15.4689 19.5285 15.538 19.6515 15.6611C19.7746 15.7842 19.8438 15.9511 19.8438 16.1252C19.8438 16.2992 19.7746 16.4661 19.6515 16.5892C19.5285 16.7123 19.3615 16.7814 19.1875 16.7814H18.3125C18.1385 16.7814 17.9715 16.7123 17.8485 16.5892C17.7254 16.4661 17.6562 16.2992 17.6562 16.1252ZM21.1562 16.1252C21.1562 15.9511 21.2254 15.7842 21.3485 15.6611C21.4715 15.538 21.6385 15.4689 21.8125 15.4689H22.6875C22.8615 15.4689 23.0285 15.538 23.1515 15.6611C23.2746 15.7842 23.3438 15.9511 23.3438 16.1252C23.3438 16.2992 23.2746 16.4661 23.1515 16.5892C23.0285 16.7123 22.8615 16.7814 22.6875 16.7814H21.8125C21.6385 16.7814 21.4715 16.7123 21.3485 16.5892C21.2254 16.4661 21.1562 16.2992 21.1562 16.1252ZM17.6562 18.7502C17.6562 18.5761 17.7254 18.4092 17.8485 18.2861C17.9715 18.163 18.1385 18.0939 18.3125 18.0939H19.1875C19.3615 18.0939 19.5285 18.163 19.6515 18.2861C19.7746 18.4092 19.8438 18.5761 19.8438 18.7502C19.8438 18.9242 19.7746 19.0911 19.6515 19.2142C19.5285 19.3373 19.3615 19.4064 19.1875 19.4064H18.3125C18.1385 19.4064 17.9715 19.3373 17.8485 19.2142C17.7254 19.0911 17.6562 18.9242 17.6562 18.7502ZM21.1562 18.7502C21.1562 18.5761 21.2254 18.4092 21.3485 18.2861C21.4715 18.163 21.6385 18.0939 21.8125 18.0939H22.6875C22.8615 18.0939 23.0285 18.163 23.1515 18.2861C23.2746 18.4092 23.3438 18.5761 23.3438 18.7502C23.3438 18.9242 23.2746 19.0911 23.1515 19.2142C23.0285 19.3373 22.8615 19.4064 22.6875 19.4064H21.8125C21.6385 19.4064 21.4715 19.3373 21.3485 19.2142C21.2254 19.0911 21.1562 18.9242 21.1562 18.7502ZM17.6562 21.3752C17.6562 21.2011 17.7254 21.0342 17.8485 20.9111C17.9715 20.788 18.1385 20.7189 18.3125 20.7189H19.1875C19.3615 20.7189 19.5285 20.788 19.6515 20.9111C19.7746 21.0342 19.8438 21.2011 19.8438 21.3752C19.8438 21.5492 19.7746 21.7161 19.6515 21.8392C19.5285 21.9623 19.3615 22.0314 19.1875 22.0314H18.3125C18.1385 22.0314 17.9715 21.9623 17.8485 21.8392C17.7254 21.7161 17.6562 21.5492 17.6562 21.3752ZM21.1562 21.3752C21.1562 21.2011 21.2254 21.0342 21.3485 20.9111C21.4715 20.788 21.6385 20.7189 21.8125 20.7189H22.6875C22.8615 20.7189 23.0285 20.788 23.1515 20.9111C23.2746 21.0342 23.3438 21.2011 23.3438 21.3752C23.3438 21.5492 23.2746 21.7161 23.1515 21.8392C23.0285 21.9623 22.8615 22.0314 22.6875 22.0314H21.8125C21.6385 22.0314 21.4715 21.9623 21.3485 21.8392C21.2254 21.7161 21.1562 21.5492 21.1562 21.3752Z" fill="#2EB200"/>
</svg>
