<svg width="24" height="25" viewBox="0 0 24 25" fill="none" xmlns="http://www.w3.org/2000/svg">
<g id="instagram-line 1">
<g id="Group">
<g id="Group_2">
<path id="Vector" d="M12 9.06396C11.2044 9.06396 10.4413 9.38003 9.87868 9.94264C9.31607 10.5053 9 11.2683 9 12.064C9 12.8596 9.31607 13.6227 9.87868 14.1853C10.4413 14.7479 11.2044 15.064 12 15.064C12.7956 15.064 13.5587 14.7479 14.1213 14.1853C14.6839 13.6227 15 12.8596 15 12.064C15 11.2683 14.6839 10.5053 14.1213 9.94264C13.5587 9.38003 12.7956 9.06396 12 9.06396ZM12 7.06396C13.3261 7.06396 14.5979 7.59075 15.5355 8.52843C16.4732 9.46611 17 10.7379 17 12.064C17 13.39 16.4732 14.6618 15.5355 15.5995C14.5979 16.5372 13.3261 17.064 12 17.064C10.6739 17.064 9.40215 16.5372 8.46447 15.5995C7.52678 14.6618 7 13.39 7 12.064C7 10.7379 7.52678 9.46611 8.46447 8.52843C9.40215 7.59075 10.6739 7.06396 12 7.06396ZM18.5 6.81396C18.5 7.14549 18.3683 7.46343 18.1339 7.69785C17.8995 7.93227 17.5815 8.06396 17.25 8.06396C16.9185 8.06396 16.6005 7.93227 16.3661 7.69785C16.1317 7.46343 16 7.14549 16 6.81396C16 6.48244 16.1317 6.1645 16.3661 5.93008C16.6005 5.69566 16.9185 5.56396 17.25 5.56396C17.5815 5.56396 17.8995 5.69566 18.1339 5.93008C18.3683 6.1645 18.5 6.48244 18.5 6.81396ZM12 4.06396C9.526 4.06396 9.122 4.07096 7.971 4.12196C7.187 4.15896 6.661 4.26396 6.173 4.45396C5.739 4.62196 5.426 4.82296 5.093 5.15696C4.78001 5.45936 4.53935 5.82855 4.389 6.23696C4.199 6.72696 4.094 7.25197 4.058 8.03497C4.006 9.13897 3.999 9.52496 3.999 12.064C3.999 14.539 4.006 14.942 4.057 16.093C4.094 16.876 4.199 17.403 4.388 17.89C4.558 18.325 4.758 18.638 5.09 18.97C5.427 19.306 5.74 19.507 6.17 19.673C6.664 19.864 7.19 19.97 7.97 20.006C9.074 20.058 9.46 20.064 11.999 20.064C14.474 20.064 14.877 20.057 16.028 20.006C16.81 19.969 17.336 19.864 17.825 19.675C18.258 19.506 18.573 19.305 18.905 18.972C19.242 18.636 19.443 18.323 19.609 17.892C19.799 17.4 19.905 16.874 19.941 16.092C19.993 14.989 19.999 14.602 19.999 12.064C19.999 9.58996 19.992 9.18597 19.941 8.03497C19.904 7.25296 19.798 6.72496 19.609 6.23696C19.4583 5.82898 19.218 5.45995 18.906 5.15696C18.6037 4.84381 18.2345 4.60313 17.826 4.45296C17.336 4.26296 16.81 4.15796 16.028 4.12196C14.925 4.06996 14.54 4.06396 12 4.06396ZM12 2.06396C14.717 2.06396 15.056 2.07396 16.123 2.12396C17.187 2.17396 17.913 2.34096 18.55 2.58896C19.21 2.84296 19.766 3.18696 20.322 3.74196C20.8305 4.24186 21.224 4.84655 21.475 5.51396C21.722 6.15096 21.89 6.87696 21.94 7.94196C21.987 9.00796 22 9.34696 22 12.064C22 14.781 21.99 15.12 21.94 16.186C21.89 17.251 21.722 17.976 21.475 18.614C21.2246 19.2817 20.8311 19.8866 20.322 20.386C19.822 20.8943 19.2173 21.2877 18.55 21.539C17.913 21.786 17.187 21.954 16.123 22.004C15.056 22.051 14.717 22.064 12 22.064C9.283 22.064 8.944 22.054 7.877 22.004C6.813 21.954 6.088 21.786 5.45 21.539C4.78233 21.2884 4.17753 20.8949 3.678 20.386C3.16943 19.8861 2.77596 19.2814 2.525 18.614C2.277 17.977 2.11 17.251 2.06 16.186C2.012 15.12 2 14.781 2 12.064C2 9.34696 2.01 9.00796 2.06 7.94196C2.11 6.87596 2.277 6.15196 2.525 5.51396C2.77524 4.84614 3.1688 4.24129 3.678 3.74196C4.17767 3.2332 4.78243 2.83969 5.45 2.58896C6.087 2.34096 6.812 2.17396 7.877 2.12396C8.944 2.07696 9.283 2.06396 12 2.06396Z" fill="white"/>
</g>
</g>
</g>
</svg>
