<svg width="24" height="25" viewBox="0 0 24 25" fill="none" xmlns="http://www.w3.org/2000/svg">
<g id="linkedin-fill 1">
<g id="Group">
<g id="Group_2">
<path id="Vector" d="M6.9375 5.06399C6.93724 5.59442 6.72627 6.10302 6.35101 6.47791C5.97575 6.85279 5.46693 7.06325 4.9365 7.06299C4.40607 7.06272 3.89746 6.85176 3.52258 6.4765C3.14769 6.10123 2.93724 5.59242 2.9375 5.06199C2.93777 4.53156 3.14873 4.02295 3.52399 3.64807C3.89925 3.27318 4.40807 3.06272 4.9385 3.06299C5.46893 3.06325 5.97754 3.27422 6.35242 3.64948C6.72731 4.02474 6.93777 4.53356 6.9375 5.06399ZM6.9975 8.54399H2.9975V21.064H6.9975V8.54399ZM13.3175 8.54399H9.3375V21.064H13.2775V14.494C13.2775 10.834 18.0475 10.494 18.0475 14.494V21.064H21.9975V13.134C21.9975 6.96399 14.9375 7.19399 13.2775 10.224L13.3175 8.54399Z" fill="white"/>
</g>
</g>
</g>
</svg>
