<svg width="25" height="24" viewBox="0 0 25 24" fill="none" xmlns="http://www.w3.org/2000/svg">
<path d="M18.836 18.339H16.171V14.162C16.171 13.166 16.151 11.884 14.781 11.884C13.392 11.884 13.18 12.968 13.18 14.089V18.339H10.514V9.75H13.074V10.92H13.109C13.467 10.246 14.337 9.533 15.637 9.533C18.337 9.533 18.837 11.311 18.837 13.624L18.836 18.339ZM7.504 8.575C7.30056 8.57526 7.09906 8.53537 6.91106 8.45761C6.72307 8.37984 6.55227 8.26574 6.40846 8.12184C6.26465 7.97793 6.15065 7.80706 6.07301 7.61901C5.99537 7.43097 5.9556 7.22944 5.956 7.026C5.9562 6.71983 6.04718 6.4206 6.21744 6.16615C6.3877 5.91169 6.62959 5.71343 6.91253 5.59645C7.19547 5.47947 7.50674 5.44902 7.80698 5.50894C8.10722 5.56886 8.38296 5.71648 8.59931 5.93311C8.81566 6.14974 8.96291 6.42566 9.02245 6.72598C9.08199 7.0263 9.05113 7.33753 8.93378 7.62032C8.81644 7.9031 8.61787 8.14474 8.36319 8.31467C8.10851 8.4846 7.80917 8.5752 7.503 8.575H7.504ZM8.84 18.339H6.167V9.75H8.84V18.339ZM20.17 3H4.83C4.094 3 3.5 3.58 3.5 4.297V19.703C3.5 20.42 4.094 21 4.828 21H20.167C20.9 21 21.5 20.42 21.5 19.703V4.297C21.5 3.581 20.9 3 20.166 3H20.17Z" fill="#F9FAFB"/>
</svg>
