<svg width="150" height="20" viewBox="0 0 150 20" fill="none" xmlns="http://www.w3.org/2000/svg">
<g id="Group">
<g id="Group_2">
<path id="Vector" d="M75.6775 18.3805C74.4596 17.5823 73.5523 16.5084 72.9557 15.165C72.357 13.8195 72.0587 12.3423 72.0587 10.7273C72.0587 9.11234 72.357 7.6393 72.9557 6.30205C73.5523 4.9648 74.4596 3.90117 75.6775 3.1091C76.8955 2.31704 78.3993 1.92203 80.1933 1.92203C82.2095 1.92203 83.843 2.41579 85.0897 3.40124C86.3365 4.38669 87.0874 5.70132 87.3425 7.34511H84.2277C84.0487 6.43372 83.5961 5.72395 82.872 5.21579C82.1478 4.70763 81.2405 4.45458 80.1501 4.45458C78.5063 4.45458 77.237 5.02652 76.34 6.16833C75.443 7.31219 74.9945 8.83255 74.9945 10.7294C74.9945 12.6262 75.443 14.1548 76.34 15.3131C77.237 16.4713 78.5063 17.0495 80.1501 17.0495C81.2549 17.0495 82.1663 16.7799 82.8843 16.243C83.6023 15.706 84.0487 14.914 84.2298 13.8668H87.3445C87.075 15.6299 86.3221 17.0227 85.0815 18.0452C83.8409 19.0677 82.2136 19.5799 80.1954 19.5799C78.4035 19.5799 76.8975 19.1808 75.6796 18.3805H75.6775Z" fill="#2EB200"/>
<path id="Vector_2" d="M90.6782 19.2878H87.7198L93.8383 2.18952H96.9757L103.094 19.2878H100.136L98.8807 15.5456H91.9558L90.6782 19.2878ZM92.7849 13.0583H98.029L96.0128 7.05301C95.7289 6.17248 95.587 5.48533 95.587 4.99158H95.229C95.229 5.52854 95.0953 6.21774 94.8258 7.05301L92.787 13.0583H92.7849Z" fill="#2EB200"/>
<path id="Vector_3" d="M104.438 19.2878V2.18952H111.496C113.169 2.18952 114.487 2.6051 115.45 3.43419C116.413 4.26329 116.897 5.51414 116.897 7.18673C116.897 8.85933 116.403 10.0402 115.417 10.9516C114.432 11.863 113.124 12.3177 111.496 12.3177H107.283V19.2878H104.438ZM111.116 9.83038C112.087 9.83038 112.825 9.61025 113.333 9.16998C113.842 8.72972 114.095 8.09812 114.095 7.27725C114.095 6.45638 113.837 5.8289 113.321 5.39481C112.807 4.96072 112.07 4.7447 111.114 4.7447H107.281V9.83244H111.114L111.116 9.83038Z" fill="#2EB200"/>
<path id="Vector_4" d="M121.559 19.2878H118.713V2.18952H121.559V19.2878Z" fill="#2EB200"/>
<path id="Vector_5" d="M131.242 19.2878H128.397V4.7447H123.019V2.18952H136.665V4.7447H131.242V19.2878Z" fill="#2EB200"/>
<path id="Vector_6" d="M137.585 19.2878H134.626L140.745 2.18952H143.882L150.001 19.2878H147.042L145.787 15.5456H138.862L137.585 19.2878ZM139.691 13.0583H144.935L142.919 7.05301C142.635 6.17248 142.493 5.48533 142.493 4.99158H142.135C142.135 5.52854 142.002 6.21774 141.732 7.05301L139.693 13.0583H139.691Z" fill="#2EB200"/>
</g>
<g id="Group_3">
<path id="Vector_7" d="M25.494 18.6705C24.4262 18.006 23.6259 17.1172 23.0952 16.0042C22.5644 14.8912 22.299 13.6692 22.299 12.3401C22.299 10.6367 22.7063 8.97437 23.521 7.35321C24.3357 5.73205 25.5228 4.40714 27.0843 3.37642C28.6458 2.34571 30.4706 1.82932 32.5629 1.82932C34.0709 1.82932 35.3485 2.08649 36.3957 2.60287C37.4408 3.1172 38.2288 3.8352 38.7595 4.75482C39.2903 5.67444 39.5475 6.7463 39.5331 7.9704H35.2539C35.1798 7.07341 34.8794 6.4233 34.3569 6.02007C33.8343 5.61684 33.0567 5.41522 32.026 5.41522C30.8759 5.41522 29.8637 5.73616 28.9894 6.37804C28.115 7.01992 27.4505 7.83873 26.9958 8.83242C26.5391 9.8261 26.3128 10.8383 26.3128 11.869C26.3128 13.0787 26.6296 14.0847 27.2653 14.883C27.901 15.6812 28.831 16.0824 30.0551 16.0824C31.1002 16.0824 31.9972 15.8849 32.744 15.4878C33.4908 15.0928 34.0359 14.5497 34.3795 13.8625C34.4392 13.7288 34.4988 13.5828 34.5585 13.4264C34.6182 13.27 34.682 13.1343 34.7498 13.0232C34.8177 12.9121 34.9185 12.803 35.0523 12.6981L34.9412 12.5644C34.7313 12.7434 34.542 12.8565 34.3692 12.8997C34.1964 12.945 33.9393 12.9676 33.5957 12.9676H31.1969L31.7564 9.74175H39.3315L37.6506 19.2877H33.9989L34.4022 17.1584H33.9989C33.8199 18.0101 33.3488 18.6417 32.5876 19.0511C31.8264 19.4626 30.7731 19.6683 29.4276 19.6683C27.8743 19.6683 26.5617 19.335 25.494 18.6705Z" fill="black"/>
<path id="Vector_8" d="M51.2082 19.2876H39.533L42.5593 2.18924H54.2345L53.5844 5.77514H45.9209L45.3613 8.9578H52.2863L51.6588 12.5211H44.7339L44.1743 15.7037H51.8378L51.2103 19.2896L51.2082 19.2876Z" fill="black"/>
<path id="Vector_9" d="M53.0914 19.2876L56.1177 2.18924H60.1294L64.0054 10.8608C64.1536 11.1735 64.2749 11.478 64.3634 11.7681C64.4519 12.0582 64.528 12.4676 64.5876 12.9901H65.102C65.0876 12.4532 65.0917 12.0335 65.1123 11.7352C65.1349 11.4369 65.1822 11.0707 65.2583 10.6366L66.7602 2.18924H70.7719L67.7477 19.2876H63.7133L59.8147 10.4802C59.8003 10.435 59.7468 10.3115 59.6583 10.1099C59.5699 9.90828 59.4896 9.66552 59.4238 9.38161C59.3559 9.0977 59.3003 8.78499 59.2551 8.43936H58.7613C58.7757 8.97632 58.7716 9.3919 58.751 9.68403C58.7284 9.97617 58.679 10.3383 58.605 10.7703L57.1031 19.2855H53.0914V19.2876Z" fill="black"/>
</g>
<path id="Vector_10" d="M1.44979 0.331715L0.168083 7.50351L0.157799 7.56317C-0.932577 13.6754 3.76633 19.2878 9.9753 19.2878C9.99587 19.2878 10.0144 19.2878 10.035 19.2878H17.0195L20.4059 0.331715H1.44979ZM6.88521 14.5457C6.30093 14.1959 5.77014 13.7495 5.32165 13.2126C4.85875 12.6591 4.5049 12.0378 4.26213 11.3774H7.45097L6.88727 14.5457H6.88521ZM13.7772 15.4139H10.6666L12.0758 7.50351H4.10372L4.69211 4.20769H15.7769L13.7752 15.4139H13.7772Z" fill="black"/>
</g>
</svg>
