<svg width="90" height="90" viewBox="0 0 90 90" fill="none" xmlns="http://www.w3.org/2000/svg">
<rect width="90" height="90" rx="10" fill="#071A00"/>
<path d="M45.0037 36.5625C43.335 36.5625 41.7037 37.0574 40.3161 37.9845C38.9286 38.9116 37.8471 40.2294 37.2085 41.7711C36.5699 43.3129 36.4028 45.0094 36.7284 46.6461C37.0539 48.2828 37.8575 49.7862 39.0375 50.9662C40.2175 52.1462 41.721 52.9498 43.3577 53.2754C44.9944 53.601 46.6909 53.4339 48.2326 52.7953C49.7744 52.1566 51.0921 51.0752 52.0193 49.6876C52.9464 48.3001 53.4412 46.6688 53.4412 45C53.4389 42.763 52.5491 40.6183 50.9673 39.0364C49.3855 37.4546 47.2408 36.5649 45.0037 36.5625ZM45.0037 50.0625C44.0025 50.0625 43.0237 49.7656 42.1912 49.2093C41.3586 48.6531 40.7098 47.8624 40.3266 46.9374C39.9434 46.0123 39.8432 44.9944 40.0385 44.0124C40.2339 43.0303 40.716 42.1283 41.424 41.4203C42.132 40.7123 43.0341 40.2301 44.0161 40.0348C44.9981 39.8395 46.016 39.9397 46.9411 40.3229C47.8661 40.706 48.6568 41.3549 49.2131 42.1874C49.7693 43.02 50.0662 43.9988 50.0662 45C50.0651 46.3423 49.5313 47.6293 48.5822 48.5784C47.633 49.5276 46.346 50.0613 45.0037 50.0625ZM58.5037 27.5625H31.5037C30.3638 27.4304 29.2087 27.5577 28.1248 27.935C27.041 28.3124 26.0565 28.9298 25.2451 29.7413C24.4336 30.5528 23.8161 31.5373 23.4388 32.6211C23.0615 33.7049 22.9341 34.86 23.0662 36V54C22.9341 55.14 23.0615 56.2951 23.4388 57.3789C23.8161 58.4627 24.4336 59.4472 25.2451 60.2587C26.0565 61.0702 27.041 61.6877 28.1248 62.065C29.2087 62.4423 30.3638 62.5696 31.5037 62.4375H58.5037C59.6437 62.5696 60.7988 62.4423 61.8827 62.065C62.9665 61.6877 63.9509 61.0702 64.7624 60.2587C65.5739 59.4472 66.1914 58.4627 66.5687 57.3789C66.946 56.2951 67.0734 55.14 66.9412 54V36C67.0734 34.86 66.946 33.7049 66.5687 32.6211C66.1914 31.5373 65.5739 30.5528 64.7624 29.7413C63.9509 28.9298 62.9665 28.3124 61.8827 27.935C60.7988 27.5577 59.6437 27.4304 58.5037 27.5625ZM63.5662 54C63.5662 57.5483 62.052 59.0625 58.5037 59.0625H31.5037C27.9555 59.0625 26.4412 57.5483 26.4412 54V36C26.4412 32.4518 27.9555 30.9375 31.5037 30.9375H58.5037C62.052 30.9375 63.5662 32.4518 63.5662 36V54ZM33.7537 45C33.7537 45.445 33.6218 45.88 33.3745 46.2501C33.1273 46.6201 32.7759 46.9085 32.3648 47.0788C31.9536 47.249 31.5012 47.2936 31.0648 47.2068C30.6283 47.12 30.2274 46.9057 29.9128 46.591C29.5981 46.2763 29.3838 45.8754 29.297 45.439C29.2102 45.0025 29.2547 44.5501 29.425 44.139C29.5953 43.7278 29.8837 43.3764 30.2537 43.1292C30.6237 42.882 31.0587 42.75 31.5037 42.75C32.1005 42.75 32.6728 42.9871 33.0947 43.409C33.5167 43.831 33.7537 44.4033 33.7537 45ZM60.7537 45C60.7537 45.445 60.6218 45.88 60.3746 46.2501C60.1273 46.6201 59.7759 46.9085 59.3648 47.0788C58.9536 47.249 58.5012 47.2936 58.0648 47.2068C57.6283 47.12 57.2274 46.9057 56.9128 46.591C56.5981 46.2763 56.3838 45.8754 56.297 45.439C56.2102 45.0025 56.2547 44.5501 56.425 44.139C56.5953 43.7278 56.8837 43.3764 57.2537 43.1292C57.6237 42.882 58.0587 42.75 58.5037 42.75C59.1005 42.75 59.6728 42.9871 60.0947 43.409C60.5167 43.831 60.7537 44.4033 60.7537 45Z" fill="#3CE500"/>
</svg>
