<svg width="40" height="40" viewBox="0 0 40 40" fill="none" xmlns="http://www.w3.org/2000/svg">
<rect width="40" height="40" rx="4.44445" fill="#F2F4F5"/>
<path d="M20.5105 19.4063C19.775 19.4063 19.056 19.1882 18.4445 18.7795C17.8329 18.3709 17.3563 17.7901 17.0748 17.1106C16.7934 16.4311 16.7197 15.6834 16.8632 14.962C17.0067 14.2406 17.3609 13.578 17.8809 13.0579C18.401 12.5379 19.0636 12.1837 19.785 12.0402C20.5064 11.8967 21.2541 11.9704 21.9336 12.2518C22.6131 12.5333 23.1939 13.0099 23.6025 13.6215C24.0111 14.233 24.2293 14.952 24.2293 15.6875C24.2281 16.6734 23.8359 17.6186 23.1388 18.3158C22.4416 19.0129 21.4964 19.4051 20.5105 19.4063ZM20.5105 13.2813C20.0346 13.2813 19.5694 13.4224 19.1737 13.6868C18.778 13.9512 18.4695 14.327 18.2874 14.7667C18.1053 15.2064 18.0576 15.6902 18.1505 16.1569C18.2433 16.6237 18.4725 17.0525 18.809 17.389C19.1455 17.7255 19.5743 17.9547 20.0411 18.0475C20.5078 18.1404 20.9916 18.0927 21.4313 17.9106C21.871 17.7285 22.2468 17.42 22.5112 17.0243C22.7756 16.6286 22.9167 16.1634 22.9167 15.6875C22.9163 15.0495 22.6626 14.4377 22.2115 13.9865C21.7603 13.5354 21.1485 13.2817 20.5105 13.2813ZM24.0026 29.0313H17.0026C14.8851 29.0313 13.7188 27.8719 13.7188 25.7666C13.7188 23.4374 15.0365 20.7188 18.75 20.7188H22.25C25.9635 20.7188 27.2812 23.4374 27.2812 25.7666C27.2839 27.8719 26.1175 29.0313 24.0026 29.0313ZM18.7526 22.0313C18.253 21.9926 17.7509 22.0629 17.2811 22.2372C16.8112 22.4114 16.3848 22.6856 16.0312 23.0408C15.6777 23.3959 15.4054 23.8236 15.2332 24.2942C15.061 24.7648 14.993 25.2672 15.0339 25.7666C15.0339 27.1351 15.6236 27.7188 17.0052 27.7188H24.0026C25.3843 27.7188 25.974 27.1351 25.974 25.7666C26.0149 25.2669 25.9469 24.7643 25.7745 24.2935C25.6022 23.8227 25.3296 23.3949 24.9758 23.0397C24.6219 22.6845 24.1952 22.4104 23.725 22.2363C23.2548 22.0622 22.7525 21.9922 22.2526 22.0313H18.7526Z" fill="#2EB200"/>
</svg>
