<svg width="90" height="90" viewBox="0 0 90 90" fill="none" xmlns="http://www.w3.org/2000/svg">
<rect width="90" height="90" rx="10" fill="#F2F4F5"/>
<path d="M58.5037 29.8125H55.6912V27C55.6901 25.9561 55.2748 24.9552 54.5367 24.2171C53.7985 23.4789 52.7977 23.0637 51.7537 23.0625H38.2537C37.2098 23.0637 36.209 23.4789 35.4708 24.2171C34.7327 24.9552 34.3174 25.9561 34.3162 27V29.8125H31.5037C30.3638 29.6804 29.2087 29.8077 28.1248 30.185C27.041 30.5623 26.0565 31.1798 25.2451 31.9913C24.4336 32.8028 23.8161 33.7873 23.4388 34.8711C23.0615 35.9549 22.9341 37.11 23.0662 38.25V58.5C22.9341 59.64 23.0615 60.7951 23.4388 61.8789C23.8161 62.9627 24.4336 63.9472 25.2451 64.7587C26.0565 65.5702 27.041 66.1877 28.1248 66.565C29.2087 66.9423 30.3638 67.0696 31.5037 66.9375H58.5037C59.6437 67.0696 60.7988 66.9423 61.8827 66.565C62.9665 66.1877 63.9509 65.5702 64.7624 64.7587C65.5739 63.9472 66.1914 62.9627 66.5687 61.8789C66.946 60.7951 67.0734 59.64 66.9412 58.5V38.25C67.0734 37.11 66.946 35.9549 66.5687 34.8711C66.1914 33.7873 65.5739 32.8028 64.7624 31.9913C63.9509 31.1798 62.9665 30.5623 61.8827 30.185C60.7988 29.8077 59.6437 29.6804 58.5037 29.8125ZM37.6912 27C37.6912 26.8508 37.7505 26.7077 37.856 26.6023C37.9615 26.4968 38.1046 26.4375 38.2537 26.4375H51.7537C51.9029 26.4375 52.046 26.4968 52.1515 26.6023C52.257 26.7077 52.3162 26.8508 52.3162 27V29.8125H37.6912V27ZM26.4412 38.25C26.4412 34.7017 27.9555 33.1875 31.5037 33.1875H58.5037C62.052 33.1875 63.5662 34.7017 63.5662 38.25V43.3193C63.5687 43.6466 63.4749 43.9674 63.2965 44.2418C63.1181 44.5163 62.8629 44.7322 62.5627 44.8628C59.3487 46.2447 55.9948 47.2752 52.5592 47.9363C52.4361 47.9445 52.313 47.9181 52.2041 47.86C52.0951 47.802 52.0046 47.7146 51.9427 47.6077C51.1953 46.4384 50.1711 45.4715 48.9607 44.7925C47.7503 44.1136 46.3912 43.7435 45.0037 43.7153C43.6162 43.7435 42.2571 44.1136 41.0468 44.7925C39.8364 45.4715 38.8122 46.4384 38.0647 47.6077C38.0043 47.7159 37.9141 47.8043 37.8047 47.8626C37.6954 47.9208 37.5717 47.9464 37.4482 47.9363C34.0158 47.2746 30.6649 46.2441 27.4537 44.8628C27.1536 44.7322 26.8984 44.5163 26.72 44.2418C26.5416 43.9674 26.4478 43.6466 26.4502 43.3193V38.25H26.4412ZM58.5037 63.5625H31.5037C27.9555 63.5625 26.4412 62.0482 26.4412 58.5V48.105C29.7679 49.5022 33.2293 50.554 36.771 51.2437C37.5515 51.3908 38.3581 51.302 39.0879 50.9886C39.8176 50.6752 40.4375 50.1515 40.8682 49.4842C41.3085 48.7768 41.916 48.1884 42.6371 47.771C43.3583 47.3535 44.171 47.1197 45.0037 47.0903C45.8362 47.1195 46.6487 47.3532 47.3696 47.7707C48.0904 48.1882 48.6974 48.7767 49.137 49.4842C49.5002 50.0407 49.9948 50.4993 50.5771 50.8195C51.1594 51.1397 51.8115 51.3116 52.476 51.3202C52.7307 51.3204 52.9847 51.2948 53.2342 51.2437C56.7767 50.5543 60.2389 49.5025 63.5662 48.105V58.5C63.5662 62.0482 62.052 63.5625 58.5037 63.5625ZM47.2987 51.75C47.2987 52.194 47.1673 52.6282 46.9211 52.9977C46.6748 53.3672 46.3247 53.6556 45.9149 53.8265C45.5051 53.9974 45.0538 54.0433 44.618 53.9583C44.1822 53.8733 43.7812 53.6612 43.4657 53.3488C43.1501 53.0364 42.9341 52.6375 42.8448 52.2026C42.7554 51.7676 42.7968 51.3159 42.9636 50.9044C43.1305 50.4929 43.4154 50.14 43.7824 49.8901C44.1494 49.6402 44.5822 49.5044 45.0262 49.5H45.0487C45.6455 49.5 46.2178 49.7371 46.6397 50.159C47.0617 50.581 47.2987 51.1533 47.2987 51.75Z" fill="black"/>
</svg>
