<svg width="91" height="90" viewBox="0 0 91 90" fill="none" xmlns="http://www.w3.org/2000/svg">
<rect x="0.5" width="90" height="90" rx="10" fill="#F2F4F5"/>
<path d="M66.0807 27.5962C59.1688 26.4963 52.4854 24.2651 46.2987 20.9925C46.0502 20.881 45.7801 20.826 45.5077 20.8315C45.2354 20.8369 44.9676 20.9027 44.7237 21.024C38.518 24.2602 31.8329 26.4792 24.9238 27.5962C24.5403 27.6714 24.1949 27.8774 23.9466 28.179C23.6983 28.4807 23.5625 28.8593 23.5625 29.25V42.5002C23.5625 61.0267 41.3915 67.9095 44.9667 69.0997C45.3126 69.2167 45.6874 69.2167 46.0333 69.0997C49.6085 67.9095 67.4375 61.0267 67.4375 42.5002V29.25C67.4377 28.8599 67.3026 28.4818 67.0551 28.1803C66.8077 27.8787 66.4633 27.6723 66.0807 27.5962ZM64.0557 42.5002C64.0557 57.9442 49.6152 64.2352 45.4932 65.7135C41.3713 64.2352 26.9307 57.9442 26.9307 42.5002V30.627C33.406 29.4852 39.6741 27.3815 45.527 24.3855C51.3552 27.3893 57.6045 29.4937 64.0625 30.627L64.0557 42.5002ZM45.5225 39.375H45.545C46.2848 39.3839 47.0012 39.6357 47.5839 40.0917C48.1666 40.5476 48.5834 41.1824 48.77 41.8983C48.9567 42.6142 48.9029 43.3717 48.617 44.0541C48.331 44.7364 47.8288 45.306 47.1875 45.675V51.75C47.1875 52.1975 47.0097 52.6268 46.6932 52.9432C46.3768 53.2597 45.9476 53.4375 45.5 53.4375C45.0524 53.4375 44.6232 53.2597 44.3068 52.9432C43.9903 52.6268 43.8125 52.1975 43.8125 51.75V45.6345C43.1777 45.2593 42.6838 44.6859 42.4067 44.0025C42.1297 43.3191 42.0849 42.5636 42.2792 41.8523C42.4735 41.141 42.8962 40.5132 43.4822 40.0656C44.0682 39.618 44.7851 39.3753 45.5225 39.375Z" fill="black"/>
</svg>
