<svg width="90" height="90" viewBox="0 0 90 90" fill="none" xmlns="http://www.w3.org/2000/svg">
<rect width="90" height="90" rx="10" fill="#071A00"/>
<path d="M56.25 23.0625C54.5812 23.0625 52.9499 23.5574 51.5624 24.4845C50.1748 25.4116 49.0934 26.7294 48.4548 28.2711C47.8162 29.8129 47.6491 31.5094 47.9746 33.1461C48.3002 34.7828 49.1038 36.2862 50.2838 37.4662C51.4638 38.6462 52.9672 39.4498 54.6039 39.7754C56.2406 40.1009 57.9371 39.9338 59.4789 39.2952C61.0206 38.6566 62.3384 37.5752 63.2655 36.1876C64.1927 34.8001 64.6875 33.1688 64.6875 31.5C64.6851 29.263 63.7954 27.1182 62.2136 25.5364C60.6318 23.9546 58.487 23.0649 56.25 23.0625ZM56.25 36.5625C55.2487 36.5625 54.27 36.2656 53.4374 35.7093C52.6049 35.153 51.956 34.3624 51.5729 33.4373C51.1897 32.5123 51.0894 31.4944 51.2848 30.5124C51.4801 29.5303 51.9623 28.6283 52.6703 27.9203C53.3783 27.2123 54.2803 26.7301 55.2624 26.5348C56.2444 26.3394 57.2623 26.4397 58.1873 26.8229C59.1124 27.206 59.903 27.8549 60.4593 28.6874C61.0156 29.5199 61.3125 30.4987 61.3125 31.5C61.3113 32.8423 60.7776 34.1293 59.8284 35.0784C58.8793 36.0276 57.5923 36.5613 56.25 36.5625ZM33.75 50.0625C32.0812 50.0625 30.4499 50.5574 29.0624 51.4845C27.6748 52.4116 26.5934 53.7294 25.9548 55.2711C25.3162 56.8129 25.1491 58.5094 25.4746 60.1461C25.8002 61.7828 26.6038 63.2862 27.7838 64.4662C28.9638 65.6462 30.4672 66.4498 32.1039 66.7754C33.7406 67.1009 35.4371 66.9338 36.9789 66.2952C38.5206 65.6566 39.8384 64.5752 40.7655 63.1876C41.6927 61.8001 42.1875 60.1688 42.1875 58.5C42.1851 56.263 41.2954 54.1182 39.7136 52.5364C38.1318 50.9546 35.987 50.0649 33.75 50.0625ZM33.75 63.5625C32.7487 63.5625 31.77 63.2656 30.9374 62.7093C30.1049 62.153 29.456 61.3624 29.0729 60.4373C28.6897 59.5123 28.5894 58.4944 28.7848 57.5124C28.9801 56.5303 29.4623 55.6283 30.1703 54.9203C30.8783 54.2123 31.7803 53.7301 32.7624 53.5348C33.7444 53.3394 34.7623 53.4397 35.6873 53.8229C36.6124 54.206 37.403 54.8549 37.9593 55.6874C38.5156 56.52 38.8125 57.4987 38.8125 58.5C38.8113 59.8423 38.2776 61.1293 37.3284 62.0784C36.3793 63.0276 35.0923 63.5613 33.75 63.5625ZM56.25 50.0625C55.8025 50.0625 55.3732 50.2403 55.0568 50.5568C54.7403 50.8732 54.5625 51.3024 54.5625 51.75V65.25C54.5625 65.6976 54.7403 66.1268 55.0568 66.4432C55.3732 66.7597 55.8025 66.9375 56.25 66.9375C56.6976 66.9375 57.1268 66.7597 57.4432 66.4432C57.7597 66.1268 57.9375 65.6976 57.9375 65.25V51.75C57.9375 51.3024 57.7597 50.8732 57.4432 50.5568C57.1268 50.2403 56.6976 50.0625 56.25 50.0625ZM33.75 39.9375C34.1976 39.9375 34.6268 39.7597 34.9432 39.4432C35.2597 39.1268 35.4375 38.6976 35.4375 38.25V24.75C35.4375 24.3024 35.2597 23.8732 34.9432 23.5568C34.6268 23.2403 34.1976 23.0625 33.75 23.0625C33.3025 23.0625 32.8732 23.2403 32.5568 23.5568C32.2403 23.8732 32.0625 24.3024 32.0625 24.75V38.25C32.0625 38.6976 32.2403 39.1268 32.5568 39.4432C32.8732 39.7597 33.3025 39.9375 33.75 39.9375Z" fill="#3CE500"/>
</svg>
