<svg width="23" height="24" viewBox="0 0 23 24" fill="none" xmlns="http://www.w3.org/2000/svg">
<path d="M12.65 21.5647C14.9699 21.2695 17.0903 20.1021 18.5803 18.2996C20.0704 16.4972 20.8181 14.195 20.6717 11.861C20.5252 9.52701 19.4956 7.33635 17.7919 5.73427C16.0883 4.1322 13.8386 3.23893 11.5 3.23604C9.15855 3.23429 6.90454 4.12537 5.19724 5.72771C3.48994 7.33006 2.45783 9.52308 2.3112 11.8599C2.16458 14.1968 2.91449 16.5016 4.40812 18.3048C5.90174 20.108 8.0267 21.2738 10.35 21.5647V14.736H8.05V12.436H10.35V10.5339C10.35 8.99638 10.511 8.43863 10.81 7.87628C11.1045 7.31986 11.5597 6.86502 12.1164 6.57104C12.5557 6.33529 13.1019 6.19384 14.0564 6.13288C14.4348 6.10874 14.9247 6.13864 15.5261 6.22488V8.40988H14.9511C13.8966 8.40988 13.4607 8.45934 13.2008 8.59848C13.0458 8.67831 12.9196 8.80455 12.8398 8.95959C12.7018 9.21949 12.6511 9.47709 12.6511 10.5328V12.436H15.5261L14.9511 14.736H12.6511L12.65 21.5647ZM11.5 23.936C5.14855 23.936 0 18.7875 0 12.436C0 6.08459 5.14855 0.936035 11.5 0.936035C17.8514 0.936035 23 6.08459 23 12.436C23 18.7875 17.8514 23.936 11.5 23.936Z" fill="white"/>
</svg>
