<svg width="24" height="25" viewBox="0 0 24 25" fill="none" xmlns="http://www.w3.org/2000/svg">
<g id="whatsapp-line 1">
<g id="Group">
<g id="Group_2">
<path id="Vector" d="M7.25301 18.558L7.97701 18.981C9.19795 19.693 10.5866 20.0669 12 20.064C13.5823 20.064 15.129 19.5948 16.4446 18.7157C17.7602 17.8367 18.7855 16.5872 19.3911 15.1254C19.9966 13.6636 20.155 12.0551 19.8463 10.5032C19.5376 8.95139 18.7757 7.52593 17.6569 6.40711C16.538 5.28829 15.1126 4.52636 13.5607 4.21768C12.0089 3.909 10.4004 4.06743 8.93855 4.67293C7.47674 5.27843 6.22731 6.30381 5.34826 7.6194C4.46921 8.935 4.00001 10.4817 4.00001 12.064C4.00001 13.5 4.37701 14.877 5.08401 16.088L5.50601 16.812L4.85301 19.213L7.25301 18.558ZM2.00401 22.064L3.35601 17.096C2.46511 15.5688 1.99706 13.832 2.00001 12.064C2.00001 6.54097 6.47701 2.06396 12 2.06396C17.523 2.06396 22 6.54097 22 12.064C22 17.587 17.523 22.064 12 22.064C10.2328 22.0668 8.49667 21.5991 6.97001 20.709L2.00401 22.064ZM8.39101 7.37196C8.52501 7.36196 8.66001 7.36196 8.79401 7.36796C8.84801 7.37196 8.90201 7.37796 8.95601 7.38397C9.11501 7.40197 9.29001 7.49896 9.34901 7.63296C9.64701 8.30896 9.93701 8.98996 10.217 9.67297C10.279 9.82497 10.242 10.02 10.124 10.21C10.064 10.307 9.97001 10.443 9.86101 10.582C9.74801 10.727 9.50501 10.993 9.50501 10.993C9.50501 10.993 9.40601 11.111 9.44401 11.258C9.45801 11.314 9.50401 11.395 9.54601 11.463L9.60501 11.558C9.86101 11.985 10.205 12.418 10.625 12.826C10.745 12.942 10.862 13.061 10.988 13.172C11.456 13.585 11.986 13.922 12.558 14.172L12.563 14.174C12.648 14.211 12.691 14.231 12.815 14.284C12.877 14.31 12.941 14.332 13.006 14.35C13.0732 14.3671 13.1439 14.3638 13.2093 14.3407C13.2746 14.3176 13.3316 14.2755 13.373 14.22C14.097 13.343 14.163 13.286 14.169 13.286V13.288C14.2193 13.2411 14.2791 13.2054 14.3443 13.1835C14.4095 13.1616 14.4786 13.1539 14.547 13.161C14.607 13.165 14.668 13.176 14.724 13.201C15.255 13.444 16.124 13.823 16.124 13.823L16.706 14.084C16.804 14.131 16.893 14.242 16.896 14.349C16.9 14.416 16.906 14.524 16.883 14.722C16.851 14.981 16.773 15.292 16.695 15.455C16.6416 15.5662 16.5707 15.6681 16.485 15.757C16.3841 15.8629 16.2736 15.9593 16.155 16.045C16.073 16.107 16.03 16.135 16.03 16.135C15.9056 16.2138 15.7778 16.2872 15.647 16.355C15.3895 16.4917 15.1052 16.5702 14.814 16.585C14.629 16.595 14.444 16.609 14.258 16.599C14.25 16.599 13.69 16.512 13.69 16.512C12.2683 16.138 10.9534 15.4374 9.85001 14.466C9.62401 14.267 9.41401 14.053 9.20001 13.84C8.31201 12.955 7.63901 12 7.23001 11.098C7.02172 10.6555 6.90927 10.174 6.90001 9.68497C6.89625 9.07771 7.09507 8.48654 7.46501 8.00496C7.53801 7.91096 7.60701 7.81296 7.72601 7.69997C7.85201 7.57997 7.93301 7.51596 8.02001 7.47196C8.13569 7.414 8.26188 7.37998 8.39101 7.37196Z" fill="white"/>
</g>
</g>
</g>
</svg>
